# xmcd
#
# Track frame offsets:
#	150
#	15610
#	37387
#	59055
#	75007
#	94055
#	110690
#	130472
#	146472
#	168517
#	186800
#	208405
#
# Disc length: 3092 seconds
#
# Revision: 4
# Processed by: cddbd v1.5.2PL0 Copyright (c) Steve Scherf et al.
# Submitted via: EasyCDDAExtractor 10.0.6.1
#
DISCID=af0c120c
DTITLE=Mor ve Ötesi - Büyük Düşler
DYEAR=2006
DGENRE=Hard Rock
TTITLE0=Parti
TTITLE1=Kördüğüm
TTITLE2=Ayıp Olmaz Mı?
TTITLE3=Şirket
TTITLE4=Küçük Sevgilim
TTITLE5=Durma Öyle
TTITLE6=Kış Geliyor
TTITLE7=Darbe
TTITLE8=Saklama
TTITLE9=Sonu Belli
TTITLE10=Çocuklar ve Hayvanlar
TTITLE11=Büyük Düşler
EXTD=
EXTT0=
EXTT1=
EXTT2=
EXTT3=
EXTT4=
EXTT5=
EXTT6=
EXTT7=
EXTT8=
EXTT9=
EXTT10=
EXTT11=
PLAYORDER=
